# xmcd
#
# Track frame offsets:
#	150
#	17583
#	29509
#	43959
#	58766
#
# Disc length: 961 seconds
#
# Revision: 0
# Processed by: cddbd v1.5.2PL0 Copyright (c) Steve Scherf et al.
# Submitted via: audiograbber 1.83.01
#
DISCID=3f03bf05
DTITLE=Skeletones - Los Skeletone Blues
DYEAR=1900
DGENRE=Blues
TTITLE0=Monkey On My Back
TTITLE1=Baby Knocks Me Off My Feet
TTITLE2=Better Girlfriend
TTITLE3=Lost In You
TTITLE4=Whiskey For Water
EXTD=
EXTT0=
EXTT1=
EXTT2=
EXTT3=
EXTT4=
PLAYORDER=
